<svg xmlns="http://www.w3.org/2000/svg" viewBox="0 0 569.32 35.53"><defs><style>.cls-1{fill:#8dc15b;}</style></defs><title>Asset 1</title><g id="Layer_2" data-name="Layer 2"><g id="Layer_1-2" data-name="Layer 1"><path class="cls-1" d="M11.31,26.31a6.93,6.93,0,0,1-5,2.31,3.67,3.67,0,0,1-2.74-.91,13.87,13.87,0,0,1-1.28-1.24C.77,25.72,0,24.85,0,23.86a5.35,5.35,0,0,1,2.85-4.17,1.39,1.39,0,0,1,.66-.22q.49,0,.33.44A9,9,0,0,0,3,23.56c0,1.68.62,2.52,1.83,2.52a4.69,4.69,0,0,0,3.66-1.76A5.1,5.1,0,0,0,10,21c0-1.28-.51-2.09-2.38-3-.84-.4-2.71-1-3.81-1.46a8.79,8.79,0,0,1-1.72-.91A4,4,0,0,1,.26,12a8.92,8.92,0,0,1,3-6.33,9.49,9.49,0,0,1,6.92-3,4.16,4.16,0,0,1,2.93,1c.26.26.66.73,1.17,1.35a4.24,4.24,0,0,1,2.45,3.92,6.19,6.19,0,0,1-1.24,3.37c-.84,1.24-1.57,1.87-2.27,1.87a3.22,3.22,0,0,1-2.42-2c1.94-1.46,2.89-3,2.89-4.61,0-1.24-.84-1.87-2.49-1.87a7.33,7.33,0,0,0-5,2.31,6.7,6.7,0,0,0-2.45,4.9A2.71,2.71,0,0,0,5,15.19a18.25,18.25,0,0,0,4.54,1.87c3.18,1,4.06,2.52,4.06,4.54A6.69,6.69,0,0,1,11.31,26.31Z"/><path class="cls-1" d="M19.46,28.5c-.8,0-1.72-.62-2.78-1.9a3.94,3.94,0,0,1-.81-2.6,33.8,33.8,0,0,1,1.57-8.71,18.9,18.9,0,0,1,1.24-3.55,1.25,1.25,0,0,1,.4,0,4.44,4.44,0,0,1,2,.51q1,.55,1,1a8.23,8.23,0,0,1-.59,1.61,27.29,27.29,0,0,0-2.34,10.32c0,.7.15,1,.48,1,.91,0,2.09-1.24,3.51-3.7a28.92,28.92,0,0,1,1-4.21,40.84,40.84,0,0,1,1.28-3.92c.26-.62.55-1,.8-1a4.07,4.07,0,0,1,2.09.59,1.89,1.89,0,0,0,.7-.91,7.72,7.72,0,0,0,.26-3,.81.81,0,0,1,.59-.15,3.16,3.16,0,0,1,1.17.15c1,.11,1.65.66,1.61,1.43.11,1-.48,2-1.61,3.11A7.36,7.36,0,0,1,29,16a7.24,7.24,0,0,1-1.39,2.42,19.62,19.62,0,0,0-.84,3.07,16.88,16.88,0,0,0-.4,3c0,1.06.22,1.57.62,1.57.62,0,1.35-.73,2.23-2.23a24.74,24.74,0,0,0,2-4q.27-.66.55-.66c.48.22.92.51.33,1.79-2.09,5.23-3.33,7.28-4.94,7.28a4.16,4.16,0,0,1-3.4-2.2,3.16,3.16,0,0,1-.48-1.21Q21.38,28.5,19.46,28.5Zm3.11,5.82a2.51,2.51,0,0,1-1.94,1.17,1.78,1.78,0,0,1-1.83-1.94,4.12,4.12,0,0,1,.84-2.42,2.41,2.41,0,0,1,2-1.17,1.85,1.85,0,0,1,1.79,1.83A4.27,4.27,0,0,1,22.57,34.32Z"/><path class="cls-1" d="M49.43,28.28a4.77,4.77,0,0,1-3.22-2,4.15,4.15,0,0,1-.66-2.52A24.39,24.39,0,0,1,46.65,18c.4-1.5,1-2.89,1-3.15a.19.19,0,0,0-.22-.22c-.29,0-.8.44-1.5,1.35a22.33,22.33,0,0,0-2.12,3.29,26,26,0,0,0-2.71,8.23L41,28a4.64,4.64,0,0,1-1.9-.37c-.77-.33-1.17-.7-1.17-1.13a36.33,36.33,0,0,1,.81-5.12c.55-2.74,1.13-5.38,1.83-8A108.4,108.4,0,0,1,43.79,2.56c1.13,0,2.71.44,3.15,1.17a.59.59,0,0,1,.11.33,3.63,3.63,0,0,1-.29,1C45.51,8.38,44,13.14,42.18,19.28l.11,0a53.61,53.61,0,0,1,3.29-5.74c1-1.28,1.87-1.9,2.56-1.9a2.83,2.83,0,0,1,2,1.28,3.82,3.82,0,0,1,1.06,2.27,5.66,5.66,0,0,1-.37,1.9c-.11.29-.51,1.43-.77,2a16.75,16.75,0,0,0-1.35,5.6q0,1.32.55,1.32c.88,0,2.6-1.76,4.06-5,.26-.55.44-1,.55-1.24.48-1.21,1.13-.44,1.13.22a1.82,1.82,0,0,1-.11.59C52.87,25.94,50.93,28.28,49.43,28.28Z"/><path class="cls-1" d="M61.24,22.83c-1.57,3.77-3,5.64-4.32,5.64a3.13,3.13,0,0,1-2.2-1.32,5.9,5.9,0,0,1-1.17-4.1,17.62,17.62,0,0,1,2.82-9.48,3.78,3.78,0,0,1,3-2,5.08,5.08,0,0,1,2.74.84c.29.22.84.66,1.68,1.28a3.22,3.22,0,0,1,.62-.07,3,3,0,0,1,2.71,1.13s-.81,1.9-1.28,3.33a22.42,22.42,0,0,0-1.39,6.73q0,1.32.55,1.32c.62,0,1.32-.7,2.12-2.12a27.59,27.59,0,0,0,2-4.24q.22-.55.55-.55c.29,0,.59.4.59.88a9.33,9.33,0,0,1-.51,1.54C67.94,26.2,66.4,28.47,65,28.47a4,4,0,0,1-1.76-.66,4.58,4.58,0,0,1-1.79-1.5,3,3,0,0,1-.33-1.46c0-.4.07-1.06.18-2Zm-3.88,2.89c.55,0,1.35-.88,2.34-2.6a33.24,33.24,0,0,0,2.63-6l.4-1.46c-.26-1-.73-1.5-1.35-1.5-1,0-1.94,1.21-3,3.59a17,17,0,0,0-1.54,6.7C56.89,25.28,57,25.72,57.36,25.72ZM66.55,11c-.18.15-.37.15-.48,0a32,32,0,0,0-5.31-4.76.82.82,0,0,1-.33-.62c0-.73,1-1.57,2.23-1.87A20.72,20.72,0,0,1,65.3,7.14,16.08,16.08,0,0,1,66.91,10,.79.79,0,0,1,66.55,11Z"/><path class="cls-1" d="M75.25,26.67a3.28,3.28,0,0,1-2.45,1.61c-1,0-2.52-1-3.51-2.34a4.4,4.4,0,0,1-.59-2.49,21.51,21.51,0,0,1,.55-4.06c.37-1.72.73-3.26,1.13-4.54a23.79,23.79,0,0,1,.92-2.78,8.48,8.48,0,0,1,2.31.4c.84.29,1.28.62,1.28,1s-.81,1.87-1.76,5.42a24.18,24.18,0,0,0-1,5.82c-.15,2.74,1.83,1,3.4-1.5a31.56,31.56,0,0,0,1.76-3.51c.11-.29.29-.44.48-.44s.59.4.59.81a2.53,2.53,0,0,1-.22.88A30.81,30.81,0,0,1,75.25,26.67ZM76.64,8a2.9,2.9,0,0,1-2.09,1.06,1.57,1.57,0,0,1-1.61-1.79A3.79,3.79,0,0,1,73.79,5a2.42,2.42,0,0,1,2-1.1,1.82,1.82,0,0,1,1.87,1.94A3.16,3.16,0,0,1,76.64,8Z"/><path class="cls-1" d="M94.39,19.21h0A.75.75,0,0,1,95,20a6.3,6.3,0,0,1-.59,1.72c-1.79,4.5-3.51,6.77-5.16,6.77a3.86,3.86,0,0,1-1.76-.7c-.44-.29-1.46-1.1-1.72-1.24-1.06-.77-1.5-1.61-1.5-4.06A35.8,35.8,0,0,1,85,16.32a63.45,63.45,0,0,1,1.79-7.13,17.58,17.58,0,0,1,2.6-5.56,2.18,2.18,0,0,1,1.65-1A3.26,3.26,0,0,1,93.36,4.1c1.21.4,1.83,1.1,1.83,2a16.2,16.2,0,0,1-1.76,6,31.49,31.49,0,0,1-5.78,8.34c-.11,1.21-.15,2.09-.15,2.6,0,2.16.4,3,1.54,3,.84,0,2.38-1.39,3.66-3.77a22.31,22.31,0,0,0,1.13-2.49C94.06,19.21,94.24,19.21,94.39,19.21Zm-4.1-9.55A56.58,56.58,0,0,0,88.06,18c3.11-4.28,5-8.71,5-11.67,0-.59-.11-.88-.29-.88C92.12,5.42,91.28,6.84,90.29,9.66Z"/><path class="cls-1" d="M108.44,19.21c.29,0,.62.4.62.88a1.62,1.62,0,0,1-.07.48q-1.76,4.67-5.6,4.5c-1.28,2.31-2.71,3.44-4.32,3.44A6.85,6.85,0,0,1,95.37,27a4.79,4.79,0,0,1-1.76-4,13.78,13.78,0,0,1,1.28-6.48c.84-1.65,1.79-2.56,2.93-2.78.62-1.57,1.54-2.34,2.74-2.34a3.88,3.88,0,0,1,1.79.62,11.59,11.59,0,0,0,1.24.7c1.43.48,2.16,1.72,2.16,3.77a18.47,18.47,0,0,1-1.65,7.06c1.5,0,2.74-1.24,3.81-3.77C108.11,19.43,108.25,19.21,108.44,19.21ZM98.15,26.56c.7,0,1.43-.81,2.16-2.45a7,7,0,0,1-2.85-5,19.54,19.54,0,0,0-.59,4.54C96.87,25.61,97.31,26.56,98.15,26.56ZM104.23,11c-.18.15-.37.15-.48,0a32,32,0,0,0-5.31-4.76.82.82,0,0,1-.33-.62c0-.73,1-1.57,2.23-1.87A20.7,20.7,0,0,1,103,7.14,16.11,16.11,0,0,1,104.59,10,.79.79,0,0,1,104.23,11ZM100.9,22.72a19,19,0,0,0,1.46-6.48q0-2.74-1.1-2.74c-1,0-2.2,1.9-2.2,4.72A5.58,5.58,0,0,0,100.9,22.72Z"/><path class="cls-1" d="M118.13,28.61c-.62,0-1.5-.88-2-1.13-1-.48-1.5-.91-1.65-1.35a4.12,4.12,0,0,1-.11-1.06,17,17,0,0,1,.44-3.55,32.3,32.3,0,0,1,1.57-5.12l-.11-.07a47.51,47.51,0,0,0-3,4.13A18.38,18.38,0,0,0,110.41,27c0,.55-.26,1.24-.59,1.24a2.72,2.72,0,0,1-1.35-.62,3.52,3.52,0,0,1-1.24-1.17,1.15,1.15,0,0,1-.15-.73,13.33,13.33,0,0,1,.22-1.94,64.59,64.59,0,0,1,2.6-11.12c1.76,0,3.15.73,3.29,1.21.11.29-.18.88-1,3.22A35.63,35.63,0,0,0,111,21.66l.11,0a59.2,59.2,0,0,1,4-6.88c1.17-1.72,2.23-2.6,3.15-2.6a3.24,3.24,0,0,1,2.89,1.72c-.11.26-.51,1.13-1.21,2.6a24.21,24.21,0,0,0-1.54,4.76,19.53,19.53,0,0,0-.66,3.84c0,.66,0,.92.48.92s1.13-.55,2-1.61a15.26,15.26,0,0,0,2.38-4.06c.44-1.06.48-1.17.77-1.17a.79.79,0,0,1,.62.84,2.79,2.79,0,0,1-.26.88,29.89,29.89,0,0,1-2.27,4.65C120.4,27.33,119,28.61,118.13,28.61Z"/><path class="cls-1" d="M125.23,35.53a5.4,5.4,0,0,1-3.4-1.28,3.62,3.62,0,0,1-1.61-2.63c0-.7.48-1.13,1.39-1.35a4.25,4.25,0,0,1,1-.15,1.78,1.78,0,0,1,.55.07,6.39,6.39,0,0,0,.33,2.6q.49,1.1,1.21,1.1,2,0,4.28-7.35c.66-2.23,1-3.55,1.13-3.92l-.07,0c-1.46,3.73-2.82,5.6-4,5.6-1.87,0-3.4-1.46-3.4-4.5a18,18,0,0,1,2-8.64c1.28-2.45,2.74-3.66,4.35-3.66a4.63,4.63,0,0,1,3.22,1.79,6.11,6.11,0,0,1,1.43,2.42v.07a1.93,1.93,0,0,1,1.21.62c-.11.44-.33,1.21-.59,2.34s-.55,2.2-.8,3.15-.48,1.76-.62,2.31C130.64,31.72,128.15,35.53,125.23,35.53Zm1.13-10.1c.48,0,1.13-.73,2-2.23a42.92,42.92,0,0,0,2.52-5.31l.11-.4a.58.58,0,0,1-.4-.55s0-.15.07-.29a4.33,4.33,0,0,0,.29-1.46c0-.69-.22-1.06-.66-1.06-.77,0-1.9,1.24-2.82,3.07a17.21,17.21,0,0,0-1.65,7.14Q125.81,25.43,126.36,25.43Z"/><path class="cls-1" d="M153.21,26.56a5.4,5.4,0,0,1-3.84,2,6,6,0,0,1-4-2,6,6,0,0,1-2.12-4.39,13.87,13.87,0,0,1,1.94-7.43c1.28-2.09,2.71-3.11,4.35-3.11a3.74,3.74,0,0,1,2.12.77l.84.84c1.21.62,1.83,1.39,1.83,2.31a4.2,4.2,0,0,1-.92,2.16,8.45,8.45,0,0,1-1.9,2.12,1.75,1.75,0,0,1-1.06.44.39.39,0,0,1-.37-.15c-.4-.18,1.68-3.4,1.61-5.09,0-.55-.18-.81-.59-.81-.91,0-1.9.91-2.93,2.71a12.73,12.73,0,0,0-1.57,6.59c0,1.94.77,2.89,2.27,2.89s3.81-1.43,5.27-3.73a19.32,19.32,0,0,0,1.54-3c.11-.33.29-.51.48-.51s.62.44.62.84a6.25,6.25,0,0,1-.51,1.54A15,15,0,0,1,153.21,26.56Z"/><path class="cls-1" d="M158.92,28.5c-.81,0-1.72-.62-2.78-1.9a3.94,3.94,0,0,1-.81-2.6,33.8,33.8,0,0,1,1.57-8.71,18.9,18.9,0,0,1,1.24-3.55,1.25,1.25,0,0,1,.4,0,4.44,4.44,0,0,1,2,.51q1,.55,1,1a8.23,8.23,0,0,1-.59,1.61,27.29,27.29,0,0,0-2.34,10.32c0,.7.15,1,.48,1,.91,0,2.09-1.24,3.51-3.7a28.92,28.92,0,0,1,1-4.21,40.84,40.84,0,0,1,1.28-3.92c.26-.62.55-1,.81-1a3.63,3.63,0,0,1,3.07,1.54,7.78,7.78,0,0,1-1.68,3.44,19.62,19.62,0,0,0-.84,3.07,16.88,16.88,0,0,0-.4,3c0,1.06.22,1.57.62,1.57.62,0,1.35-.73,2.23-2.23a24.74,24.74,0,0,0,2-4q.27-.66.55-.66c.48.22.91.51.33,1.79-2.09,5.23-3.33,7.28-4.94,7.28a4.16,4.16,0,0,1-3.4-2.2,3.16,3.16,0,0,1-.48-1.21Q160.84,28.5,158.92,28.5Zm7.87-19.83a30.31,30.31,0,0,0-2.27,2c-.44-.15-1.21-.26-1.39-.88.11-.4.44-.7,1-1.32a19.72,19.72,0,0,0,1.5-1.87,4.54,4.54,0,0,0,.62-1.35c0-.22-.22-.37-.51-.37a1.14,1.14,0,0,0-1,.59,4.53,4.53,0,0,0-.7,1.76c-.8,0-1.79-.66-1.79-1.35a2.81,2.81,0,0,1,.84-1.9,2.6,2.6,0,0,1,2.12-1,2.21,2.21,0,0,1,1.57.73,3.39,3.39,0,0,1,.33.37,2.31,2.31,0,0,1,1.21,1.79A4.24,4.24,0,0,1,166.79,8.67Z"/><path class="cls-1" d="M178.09,22.83c-1.57,3.77-3,5.64-4.32,5.64a3.13,3.13,0,0,1-2.2-1.32,5.9,5.9,0,0,1-1.17-4.1,17.62,17.62,0,0,1,2.82-9.48,3.78,3.78,0,0,1,3-2,5.08,5.08,0,0,1,2.74.84c.29.22.84.66,1.68,1.28a3.22,3.22,0,0,1,.62-.07A3,3,0,0,1,184,14.75s-.81,1.9-1.28,3.33a22.42,22.42,0,0,0-1.39,6.73q0,1.32.55,1.32c.62,0,1.32-.7,2.12-2.12a27.59,27.59,0,0,0,2-4.24q.22-.55.55-.55c.29,0,.59.4.59.88a9.35,9.35,0,0,1-.51,1.54c-1.79,4.57-3.33,6.84-4.68,6.84a4,4,0,0,1-1.76-.66,4.58,4.58,0,0,1-1.79-1.5,3,3,0,0,1-.33-1.46c0-.4.07-1.06.18-2Zm-3.88,2.89c.55,0,1.35-.88,2.34-2.6a33.24,33.24,0,0,0,2.63-6l.4-1.46c-.26-1-.73-1.5-1.35-1.5-1,0-1.94,1.21-3,3.59a17,17,0,0,0-1.54,6.7C173.74,25.28,173.88,25.72,174.21,25.72Z"/><path class="cls-1" d="M198.25,28.47c-1,.15-2.52-1.43-3.15-1.76A4.17,4.17,0,0,1,193,22.91a41,41,0,0,1,1.87-10.06A74.37,74.37,0,0,1,198.61,2a5.32,5.32,0,0,1,2.16.51c.7.33,1.06.7,1.06,1.06a5.41,5.41,0,0,1-.51,1.54c-.37.77-1,2.34-1.83,4.65s-1.79,5.09-2.74,8.34c-.07.26-.07.37,0,.37s.11-.11.22-.29a42.83,42.83,0,0,1,2.93-4.94c.92-1.17,1.68-1.76,2.38-1.76a3.38,3.38,0,0,1,2.31,1.35,4.41,4.41,0,0,1,1.21,3,15,15,0,0,1-.66,4.24,24.27,24.27,0,0,1-1.35,3.4,16.56,16.56,0,0,1-1.65,2.71C200.85,27.7,199.82,28.47,198.25,28.47Zm-.77-2q.88,0,1.87-1.76a19,19,0,0,0,1.79-4.28,16.51,16.51,0,0,0,.84-4.54c0-.8-.18-1.21-.51-1.21-.62,0-2,1.32-3.22,3.77a16.69,16.69,0,0,0-1.76,5.42,5.19,5.19,0,0,0,0,.84C196.46,25.91,196.78,26.49,197.48,26.49Z"/><path class="cls-1" d="M214.49,22.83c-1.57,3.77-3,5.64-4.32,5.64a3.13,3.13,0,0,1-2.2-1.32,5.9,5.9,0,0,1-1.17-4.1,17.62,17.62,0,0,1,2.82-9.48,3.78,3.78,0,0,1,3-2,5.08,5.08,0,0,1,2.74.84c.29.22.84.66,1.68,1.28a3.22,3.22,0,0,1,.62-.07,3,3,0,0,1,2.71,1.13s-.81,1.9-1.28,3.33a22.42,22.42,0,0,0-1.39,6.73q0,1.32.55,1.32c.62,0,1.32-.7,2.12-2.12a27.59,27.59,0,0,0,2-4.24q.22-.55.55-.55c.29,0,.59.4.59.88a9.35,9.35,0,0,1-.51,1.54c-1.79,4.57-3.33,6.84-4.68,6.84a4,4,0,0,1-1.76-.66,4.58,4.58,0,0,1-1.79-1.5,3,3,0,0,1-.33-1.46c0-.4.07-1.06.18-2Zm-3.88,2.89c.55,0,1.35-.88,2.34-2.6a33.24,33.24,0,0,0,2.63-6l.4-1.46c-.26-1-.73-1.5-1.35-1.5-1,0-1.94,1.21-3,3.59a17,17,0,0,0-1.54,6.7C210.14,25.28,210.28,25.72,210.61,25.72Zm3.84,7.87a2.51,2.51,0,0,1-1.94,1.17,1.78,1.78,0,0,1-1.83-1.94,4.12,4.12,0,0,1,.84-2.42,2.41,2.41,0,0,1,2-1.17,1.85,1.85,0,0,1,1.79,1.83A4.27,4.27,0,0,1,214.46,33.59Z"/><path class="cls-1" d="M232.53,28.61c-.62,0-1.5-.88-2-1.13-1-.48-1.5-.91-1.65-1.35a4.12,4.12,0,0,1-.11-1.06,17,17,0,0,1,.44-3.55,32.3,32.3,0,0,1,1.57-5.12l-.11-.07a47.51,47.51,0,0,0-3,4.13A18.38,18.38,0,0,0,224.81,27c0,.55-.26,1.24-.59,1.24a2.72,2.72,0,0,1-1.35-.62,3.52,3.52,0,0,1-1.24-1.17,1.15,1.15,0,0,1-.15-.73,13.33,13.33,0,0,1,.22-1.94,64.59,64.59,0,0,1,2.6-11.12c1.76,0,3.15.73,3.29,1.21.11.29-.18.88-1,3.22a35.63,35.63,0,0,0-1.24,4.54l.11,0a59.2,59.2,0,0,1,4-6.88c1.17-1.72,2.23-2.6,3.15-2.6a3.24,3.24,0,0,1,2.89,1.72c-.11.26-.51,1.13-1.21,2.6a24.21,24.21,0,0,0-1.54,4.76,19.53,19.53,0,0,0-.66,3.84c0,.66,0,.92.48.92s1.13-.55,2-1.61A15.26,15.26,0,0,0,237,20.38c.44-1.06.48-1.17.77-1.17a.79.79,0,0,1,.62.84,2.79,2.79,0,0,1-.26.88,29.89,29.89,0,0,1-2.27,4.65C234.8,27.33,233.37,28.61,232.53,28.61Z"/><path class="cls-1" d="M240.65,27.3a2.51,2.51,0,0,1-1.94,1.17,1.78,1.78,0,0,1-1.83-1.94,4.12,4.12,0,0,1,.84-2.42,2.41,2.41,0,0,1,2-1.17,1.85,1.85,0,0,1,1.79,1.83A4.27,4.27,0,0,1,240.65,27.3Z"/><path class="cls-1" d="M266.84,23.93,270.94,3a1.51,1.51,0,0,1,.44,0c1.06,0,2.42.4,2.42,1,0,0-.33,1.17-1,3.4q-2.25,8.07-4.83,20.2a10.54,10.54,0,0,1-3,.84c-.44,0-.7-.37-1.17-1.57-1.79-4.57-3.48-9.62-5.09-15.22-1.32,7-2.2,12-2.6,15a5.48,5.48,0,0,1-.29,1.43.61.61,0,0,1-.51.22,3.7,3.7,0,0,1-2.56-.77l4.5-18.22c.11-.48.37-1.35.4-1.54l-.11-.37A17.2,17.2,0,0,1,257,4.72a1,1,0,0,1,.44-.88A6.68,6.68,0,0,1,260.77,3a96.62,96.62,0,0,0,4,15.19c.4,1.35.84,2.6,1.28,3.81s.62,1.87.66,1.94Z"/><path class="cls-1" d="M279.39,26.67a3.28,3.28,0,0,1-2.45,1.61c-1,0-2.52-1-3.51-2.34a4.4,4.4,0,0,1-.59-2.49,21.51,21.51,0,0,1,.55-4.06c.37-1.72.73-3.26,1.13-4.54a23.79,23.79,0,0,1,.92-2.78,8.48,8.48,0,0,1,2.31.4c.84.29,1.28.62,1.28,1s-.81,1.87-1.76,5.42a24.18,24.18,0,0,0-1,5.82c-.15,2.74,1.83,1,3.4-1.5a31.56,31.56,0,0,0,1.76-3.51c.11-.29.29-.44.48-.44s.59.4.59.81a2.53,2.53,0,0,1-.22.88A30.81,30.81,0,0,1,279.39,26.67ZM280.78,8a2.9,2.9,0,0,1-2.09,1.06,1.57,1.57,0,0,1-1.61-1.79A3.79,3.79,0,0,1,277.93,5a2.41,2.41,0,0,1,2-1.1,1.82,1.82,0,0,1,1.87,1.94A3.16,3.16,0,0,1,280.78,8Z"/><path class="cls-1" d="M294.1,19.21c.29,0,.58.4.58.88a1.47,1.47,0,0,1-.11.55c-2.34,5.85-5.12,7.94-7.65,7.94a5.11,5.11,0,0,1-2.63-.88,6.12,6.12,0,0,1-3-5.42A16.2,16.2,0,0,1,283,14.86c1.13-2.23,2.52-3.37,4.21-3.37a3.3,3.3,0,0,1,2.12.8c.15.15.44.44.84.92a2.92,2.92,0,0,1,1.61,2.49,6.78,6.78,0,0,1-2.31,4.65c-1.54,1.57-2.89,2.34-4.1,2.34a4.31,4.31,0,0,1-.81-.07V23c0,2.31.81,3.44,2.41,3.44s3.81-1.54,5.23-3.92a23,23,0,0,0,1.35-2.67C293.73,19.43,293.92,19.21,294.1,19.21ZM291.94,4.72a18.73,18.73,0,0,0,2,4.5,3.14,3.14,0,0,1-2.27,1.1.67.67,0,0,1-.51-.18,9.76,9.76,0,0,1-1.39-3.84,26.17,26.17,0,0,1-4,3.44,1.8,1.8,0,0,1-.73.18c-.48,0-.7-.11-.7-.37s.07-.22.22-.37a33.86,33.86,0,0,0,4.9-5.42C290.59,3.66,291.76,4.13,291.94,4.72Zm-3.48,9.44c-.7,0-1.46.73-2.27,2.23a14,14,0,0,0-1.54,5A5.32,5.32,0,0,0,287,19.61c.22-.29.51-.73.92-1.32a6.43,6.43,0,0,0,1.21-3.22C289.12,14.45,288.9,14.16,288.46,14.16Zm8.12-7.65a43,43,0,0,0-5.53-4,.42.42,0,0,1-.22-.4A2.76,2.76,0,0,1,293,0a24.74,24.74,0,0,1,4.25,5.38,1,1,0,0,1,.11.4C297.39,6.26,296.84,6.77,296.59,6.51Z"/><path class="cls-1" d="M314,26.31c-1,1.35-2,2-2.89,2-.48,0-1.35-.84-2-1.17a2.1,2.1,0,0,1-1.35-2,17.71,17.71,0,0,1,1-5.27c.15-.62.62-1.79.62-1.87l-.07,0a7.66,7.66,0,0,0-1.54,1.57,25.52,25.52,0,0,0-1.87,2.71,22.31,22.31,0,0,0-1.46,3.11,19.73,19.73,0,0,0-.8,2.38c0,.48-.44.55-1.72-.15-1.06-.55-1.57-1.1-1.57-1.68a25.45,25.45,0,0,1,.88-5.82c.18-.7.51-2,1-3.92l-.11-.07a26.31,26.31,0,0,0-3.51,5.27c-.15.33-.8,1.57-1,1.9s-.22.44-.4.84a11.83,11.83,0,0,0-.92,3c0,.55-.15,1.1-.48,1.1a4.09,4.09,0,0,1-1.43-.48,4.54,4.54,0,0,1-1.39-.88,1.6,1.6,0,0,1-.26-1.1c0-.11.07-.91.26-2.45a51.06,51.06,0,0,1,1.1-5.89c.55-2.31,1.06-4.17,1.57-5.63a6.49,6.49,0,0,1,2.2.44q1.21.44,1.21.88c0,.11-.44,1.54-1.35,4.32a41.79,41.79,0,0,0-1.13,4.43l.11,0c1.06-2.23,2.38-4.57,3.88-7.1,1.35-2.23,2.56-3.33,3.66-3.33a3.61,3.61,0,0,1,1.79.55,2.5,2.5,0,0,1,1.06,1c-.11.29-.58,1.46-1.28,3.51a60,60,0,0,0-2,6.33l.11,0a59.68,59.68,0,0,1,4.1-6.44c1.28-1.76,2.27-2.63,2.93-2.63a4.86,4.86,0,0,1,2.09.51,2.4,2.4,0,0,1,1.13,1c-.11.33-.88,2.12-1.72,4.32A17.93,17.93,0,0,0,311.15,25c0,.48.11.73.37.73,1.06,0,3-2.2,4.39-5.45.29-.7.55-1.06.77-1.06.4,0,.58.26.58.73a7.21,7.21,0,0,1-.62,1.83A24.85,24.85,0,0,1,314,26.31Z"/><path class="cls-1" d="M333.39,20a1.2,1.2,0,0,1-.15.62c-2.16,5.45-4.35,7.94-5.85,7.94A4.51,4.51,0,0,1,324.5,27a4.07,4.07,0,0,1-1.65-2.78q0-3.62,2.31-11.75H323.8c-.58,0-1-.88-1-1.76a2.91,2.91,0,0,1,.07-.51l2.85,0a47.94,47.94,0,0,1,1.83-5.12,3,3,0,0,1,.62,0c1.61,0,2.93.55,2.93,1.1a16.76,16.76,0,0,1-.62,1.72c-.26.66-.55,1.46-.88,2.38.77,0,1.61,0,2.49-.07.55,0,1,.88,1,1.76a2.91,2.91,0,0,1-.07.51H329c-1.79,5.71-2.67,9.88-2.67,12.48,0,.8,0,1.35.55,1.35.88,0,2.56-1.21,3.88-3.44a19.8,19.8,0,0,0,1.5-3.07C332.62,18.63,333.32,19.39,333.39,20Z"/><path class="cls-1" d="M335.44,28.5c-.81,0-1.72-.62-2.78-1.9a3.94,3.94,0,0,1-.8-2.6,33.79,33.79,0,0,1,1.57-8.71,18.86,18.86,0,0,1,1.24-3.55,1.25,1.25,0,0,1,.4,0,4.45,4.45,0,0,1,2,.51q1,.55,1,1a8.21,8.21,0,0,1-.58,1.61,27.3,27.3,0,0,0-2.34,10.32c0,.7.15,1,.48,1,.92,0,2.09-1.24,3.51-3.7a28.86,28.86,0,0,1,1-4.21,41,41,0,0,1,1.28-3.92c.26-.62.55-1,.81-1a4.06,4.06,0,0,1,2.08.59,1.88,1.88,0,0,0,.7-.91,7.7,7.7,0,0,0,.26-3,.8.8,0,0,1,.58-.15,3.16,3.16,0,0,1,1.17.15c1,.11,1.65.66,1.61,1.43.11,1-.48,2-1.61,3.11A7.34,7.34,0,0,1,345,16a7.24,7.24,0,0,1-1.39,2.42,19.56,19.56,0,0,0-.84,3.07,16.83,16.83,0,0,0-.4,3c0,1.06.22,1.57.62,1.57.62,0,1.35-.73,2.23-2.23a24.73,24.73,0,0,0,2-4q.28-.66.55-.66c.48.22.91.51.33,1.79-2.09,5.23-3.33,7.28-4.94,7.28a4.16,4.16,0,0,1-3.4-2.2,3.17,3.17,0,0,1-.48-1.21Q337.36,28.5,335.44,28.5Zm3.11,5.82a2.51,2.51,0,0,1-1.94,1.17,1.78,1.78,0,0,1-1.83-1.94,4.12,4.12,0,0,1,.84-2.42,2.41,2.41,0,0,1,2-1.17,1.85,1.85,0,0,1,1.79,1.83A4.27,4.27,0,0,1,338.55,34.32Z"/><path class="cls-1" d="M365.4,28.28a4.77,4.77,0,0,1-3.22-2,4.15,4.15,0,0,1-.66-2.52,24.35,24.35,0,0,1,1.1-5.74c.4-1.5,1-2.89,1-3.15a.19.19,0,0,0-.22-.22c-.29,0-.81.44-1.5,1.35a22.36,22.36,0,0,0-2.12,3.29,26,26,0,0,0-2.71,8.23L357,28a4.65,4.65,0,0,1-1.9-.37c-.77-.33-1.17-.7-1.17-1.13a36.21,36.21,0,0,1,.81-5.12c.55-2.74,1.13-5.38,1.83-8a108.26,108.26,0,0,1,3.22-10.79c1.13,0,2.71.44,3.15,1.17a.59.59,0,0,1,.11.33,3.65,3.65,0,0,1-.29,1c-1.24,3.33-2.78,8.09-4.57,14.23l.11,0a53.61,53.61,0,0,1,3.29-5.74c1-1.28,1.87-1.9,2.56-1.9a2.83,2.83,0,0,1,2,1.28,3.82,3.82,0,0,1,1.06,2.27,5.66,5.66,0,0,1-.37,1.9c-.11.29-.51,1.43-.77,2a16.77,16.77,0,0,0-1.35,5.6q0,1.32.55,1.32c.88,0,2.6-1.76,4.06-5,.26-.55.44-1,.55-1.24.48-1.21,1.13-.44,1.13.22a1.82,1.82,0,0,1-.11.59C368.84,25.94,366.9,28.28,365.4,28.28Z"/><path class="cls-1" d="M377.22,22.83c-1.57,3.77-3,5.64-4.32,5.64a3.12,3.12,0,0,1-2.2-1.32,5.9,5.9,0,0,1-1.17-4.1,17.61,17.61,0,0,1,2.82-9.48,3.78,3.78,0,0,1,3-2,5.08,5.08,0,0,1,2.74.84c.29.22.84.66,1.68,1.28a3.22,3.22,0,0,1,.62-.07,3,3,0,0,1,2.71,1.13s-.8,1.9-1.28,3.33a22.41,22.41,0,0,0-1.39,6.73q0,1.32.55,1.32c.62,0,1.32-.7,2.12-2.12a27.55,27.55,0,0,0,2-4.24q.22-.55.55-.55c.29,0,.58.4.58.88a9.32,9.32,0,0,1-.51,1.54c-1.79,4.57-3.33,6.84-4.68,6.84a4,4,0,0,1-1.76-.66,4.59,4.59,0,0,1-1.79-1.5,3,3,0,0,1-.33-1.46c0-.4.07-1.06.18-2Zm-3.88,2.89c.55,0,1.35-.88,2.34-2.6a33.21,33.21,0,0,0,2.63-6l.4-1.46c-.26-1-.73-1.5-1.35-1.5-1,0-1.94,1.21-3,3.59a17,17,0,0,0-1.54,6.7C372.86,25.28,373,25.72,373.34,25.72ZM382.52,11c-.18.15-.37.15-.48,0a32,32,0,0,0-5.31-4.76.82.82,0,0,1-.33-.62c0-.73,1-1.57,2.23-1.87a20.67,20.67,0,0,1,2.63,3.37A16.19,16.19,0,0,1,382.89,10,.79.79,0,0,1,382.52,11Z"/><path class="cls-1" d="M399.64,19.21c.29,0,.62.4.62.88a1.61,1.61,0,0,1-.07.48q-1.76,4.67-5.6,4.5c-1.28,2.31-2.71,3.44-4.32,3.44a6.85,6.85,0,0,1-3.7-1.46,4.79,4.79,0,0,1-1.76-4,13.78,13.78,0,0,1,1.28-6.48c.84-1.65,1.79-2.56,2.93-2.78.62-1.57,1.54-2.34,2.75-2.34a3.88,3.88,0,0,1,1.79.62,11.62,11.62,0,0,0,1.24.7c1.43.48,2.16,1.72,2.16,3.77a18.47,18.47,0,0,1-1.65,7.06c1.5,0,2.74-1.24,3.81-3.77C399.31,19.43,399.46,19.21,399.64,19.21Zm-10.28,7.35c.7,0,1.43-.81,2.16-2.45a7,7,0,0,1-2.85-5,19.54,19.54,0,0,0-.59,4.54C388.08,25.61,388.52,26.56,389.36,26.56Zm2.74-3.84a19,19,0,0,0,1.46-6.48q0-2.74-1.1-2.74c-1,0-2.2,1.9-2.2,4.72A5.58,5.58,0,0,0,392.11,22.72Z"/><path class="cls-1" d="M416.29,26.56a5.39,5.39,0,0,1-3.84,2,6,6,0,0,1-4-2,6,6,0,0,1-2.12-4.39,13.87,13.87,0,0,1,1.94-7.43c1.28-2.09,2.71-3.11,4.35-3.11a3.74,3.74,0,0,1,2.12.77l.84.84c1.21.62,1.83,1.39,1.83,2.31a4.2,4.2,0,0,1-.91,2.16,8.44,8.44,0,0,1-1.9,2.12,1.74,1.74,0,0,1-1.06.44.39.39,0,0,1-.37-.15c-.4-.18,1.68-3.4,1.61-5.09,0-.55-.18-.81-.59-.81-.92,0-1.9.91-2.93,2.71a12.72,12.72,0,0,0-1.57,6.59c0,1.94.77,2.89,2.27,2.89s3.8-1.43,5.27-3.73a19.37,19.37,0,0,0,1.54-3c.11-.33.29-.51.48-.51s.62.44.62.84a6.27,6.27,0,0,1-.51,1.54A15,15,0,0,1,416.29,26.56Z"/><path class="cls-1" d="M422,28.5c-.81,0-1.72-.62-2.78-1.9a3.94,3.94,0,0,1-.8-2.6A33.79,33.79,0,0,1,420,15.29a18.86,18.86,0,0,1,1.24-3.55,1.25,1.25,0,0,1,.4,0,4.45,4.45,0,0,1,2,.51q1,.55,1,1a8.21,8.21,0,0,1-.58,1.61,27.3,27.3,0,0,0-2.34,10.32c0,.7.15,1,.48,1,.92,0,2.09-1.24,3.51-3.7a28.86,28.86,0,0,1,1-4.21A41,41,0,0,1,428,14.34c.26-.62.55-1,.81-1a3.63,3.63,0,0,1,3.07,1.54,7.79,7.79,0,0,1-1.68,3.44,19.56,19.56,0,0,0-.84,3.07,16.92,16.92,0,0,0-.4,3c0,1.06.22,1.57.62,1.57.62,0,1.35-.73,2.23-2.23a24.83,24.83,0,0,0,2-4q.27-.66.55-.66c.48.22.91.51.33,1.79-2.09,5.23-3.33,7.28-4.94,7.28a4.16,4.16,0,0,1-3.4-2.2,3.17,3.17,0,0,1-.48-1.21Q423.92,28.5,422,28.5Zm7.87-19.83c-.7.55-1.35,1.13-2.27,2-.44-.15-1.21-.26-1.39-.88.11-.4.44-.7,1-1.32a19.71,19.71,0,0,0,1.5-1.87,4.53,4.53,0,0,0,.62-1.35c0-.22-.22-.37-.51-.37a1.14,1.14,0,0,0-1,.59,4.53,4.53,0,0,0-.7,1.76c-.8,0-1.79-.66-1.79-1.35a2.81,2.81,0,0,1,.84-1.9,2.6,2.6,0,0,1,2.12-1,2.21,2.21,0,0,1,1.57.73,3.24,3.24,0,0,1,.33.37,2.31,2.31,0,0,1,1.21,1.79A4.24,4.24,0,0,1,429.86,8.67Z"/><path class="cls-1" d="M441.17,22.83c-1.57,3.77-3,5.64-4.32,5.64a3.12,3.12,0,0,1-2.2-1.32,5.9,5.9,0,0,1-1.17-4.1,17.61,17.61,0,0,1,2.82-9.48,3.78,3.78,0,0,1,3-2,5.08,5.08,0,0,1,2.74.84c.29.22.84.66,1.68,1.28a3.22,3.22,0,0,1,.62-.07,3,3,0,0,1,2.71,1.13s-.8,1.9-1.28,3.33a22.41,22.41,0,0,0-1.39,6.73q0,1.32.55,1.32c.62,0,1.32-.7,2.12-2.12a27.55,27.55,0,0,0,2-4.24q.22-.55.55-.55c.29,0,.58.4.58.88a9.32,9.32,0,0,1-.51,1.54c-1.79,4.57-3.33,6.84-4.68,6.84a4,4,0,0,1-1.76-.66,4.59,4.59,0,0,1-1.79-1.5,3,3,0,0,1-.33-1.46c0-.4.07-1.06.18-2Zm-3.88,2.89c.55,0,1.35-.88,2.34-2.6a33.21,33.21,0,0,0,2.63-6l.4-1.46c-.26-1-.73-1.5-1.35-1.5-1,0-1.94,1.21-3,3.59a17,17,0,0,0-1.54,6.7C436.81,25.28,437,25.72,437.29,25.72Z"/><path class="cls-1" d="M466.15,26.56a5.39,5.39,0,0,1-3.84,2,6,6,0,0,1-4-2,6,6,0,0,1-2.12-4.39,13.87,13.87,0,0,1,1.94-7.43c1.28-2.09,2.71-3.11,4.35-3.11a3.74,3.74,0,0,1,2.12.77l.84.84c1.21.62,1.83,1.39,1.83,2.31a4.2,4.2,0,0,1-.91,2.16,8.44,8.44,0,0,1-1.9,2.12,1.74,1.74,0,0,1-1.06.44.39.39,0,0,1-.37-.15c-.4-.18,1.68-3.4,1.61-5.09,0-.55-.18-.81-.59-.81-.92,0-1.9.91-2.93,2.71a12.72,12.72,0,0,0-1.57,6.59c0,1.94.77,2.89,2.27,2.89s3.8-1.43,5.27-3.73a19.37,19.37,0,0,0,1.54-3c.11-.33.29-.51.48-.51s.62.44.62.84a6.27,6.27,0,0,1-.51,1.54A15,15,0,0,1,466.15,26.56Z"/><path class="cls-1" d="M479.1,28.28a4.77,4.77,0,0,1-3.22-2,4.15,4.15,0,0,1-.66-2.52,24.35,24.35,0,0,1,1.1-5.74c.4-1.5,1-2.89,1-3.15a.19.19,0,0,0-.22-.22c-.29,0-.81.44-1.5,1.35a22.36,22.36,0,0,0-2.12,3.29,26,26,0,0,0-2.71,8.23l-.07.44a4.65,4.65,0,0,1-1.9-.37c-.77-.33-1.17-.7-1.17-1.13a36.21,36.21,0,0,1,.81-5.12c.55-2.74,1.13-5.38,1.83-8a108.26,108.26,0,0,1,3.22-10.79c1.13,0,2.71.44,3.15,1.17a.59.59,0,0,1,.11.33,3.65,3.65,0,0,1-.29,1c-1.24,3.33-2.78,8.09-4.57,14.23l.11,0a53.61,53.61,0,0,1,3.29-5.74c1-1.28,1.87-1.9,2.56-1.9a2.83,2.83,0,0,1,2,1.28,3.82,3.82,0,0,1,1.06,2.27,5.66,5.66,0,0,1-.37,1.9c-.11.29-.51,1.43-.77,2a16.77,16.77,0,0,0-1.35,5.6q0,1.32.55,1.32c.88,0,2.6-1.76,4.06-5,.26-.55.44-1,.55-1.24.48-1.21,1.13-.44,1.13.22a1.82,1.82,0,0,1-.11.59C482.54,25.94,480.6,28.28,479.1,28.28Z"/><path class="cls-1" d="M486.75,28.5c-.81,0-1.72-.62-2.78-1.9a3.94,3.94,0,0,1-.8-2.6,33.79,33.79,0,0,1,1.57-8.71A18.86,18.86,0,0,1,486,11.75a1.25,1.25,0,0,1,.4,0,4.45,4.45,0,0,1,2,.51q1,.55,1,1a8.21,8.21,0,0,1-.58,1.61,27.3,27.3,0,0,0-2.34,10.32c0,.7.15,1,.48,1,.92,0,2.09-1.24,3.51-3.7a28.86,28.86,0,0,1,1-4.21,41,41,0,0,1,1.28-3.92c.26-.62.55-1,.81-1a3.63,3.63,0,0,1,3.07,1.54,7.79,7.79,0,0,1-1.68,3.44,19.56,19.56,0,0,0-.84,3.07,16.92,16.92,0,0,0-.4,3c0,1.06.22,1.57.62,1.57.62,0,1.35-.73,2.23-2.23a24.83,24.83,0,0,0,2-4q.27-.66.55-.66c.48.22.91.51.33,1.79-2.09,5.23-3.33,7.28-4.94,7.28a4.16,4.16,0,0,1-3.4-2.2,3.17,3.17,0,0,1-.48-1.21Q488.67,28.5,486.75,28.5Zm4.61-18.11c-.18.22-.4.18-.66-.15a.79.79,0,0,1-.18-.88,16.88,16.88,0,0,1,1.68-2.93,25.64,25.64,0,0,1,2.75-3.51,2.74,2.74,0,0,1,2.23,2.2.9.9,0,0,1-.33.69A26.31,26.31,0,0,0,491.36,10.39Z"/><path class="cls-1" d="M508.74,28.61c-.62,0-1.5-.88-2-1.13-1-.48-1.5-.91-1.65-1.35a4.09,4.09,0,0,1-.11-1.06,17,17,0,0,1,.44-3.55,32.3,32.3,0,0,1,1.57-5.12l-.11-.07a47.42,47.42,0,0,0-3,4.13A18.39,18.39,0,0,0,501,27c0,.55-.26,1.24-.58,1.24a2.72,2.72,0,0,1-1.35-.62,3.52,3.52,0,0,1-1.24-1.17,1.15,1.15,0,0,1-.15-.73,13.29,13.29,0,0,1,.22-1.94,64.54,64.54,0,0,1,2.6-11.12c1.76,0,3.15.73,3.29,1.21.11.29-.18.88-1,3.22a35.63,35.63,0,0,0-1.24,4.54l.11,0a59.19,59.19,0,0,1,4-6.88c1.17-1.72,2.23-2.6,3.15-2.6a3.24,3.24,0,0,1,2.89,1.72c-.11.26-.51,1.13-1.21,2.6a24.27,24.27,0,0,0-1.54,4.76,19.56,19.56,0,0,0-.66,3.84c0,.66,0,.92.48.92s1.13-.55,2-1.61a15.25,15.25,0,0,0,2.38-4.06c.44-1.06.48-1.17.77-1.17a.79.79,0,0,1,.62.84,2.77,2.77,0,0,1-.26.88A29.84,29.84,0,0,1,512,25.58C511,27.33,509.58,28.61,508.74,28.61Z"/><path class="cls-1" d="M515.83,35.53a5.41,5.41,0,0,1-3.4-1.28,3.62,3.62,0,0,1-1.61-2.63c0-.7.48-1.13,1.39-1.35a4.26,4.26,0,0,1,1-.15,1.79,1.79,0,0,1,.55.07,6.37,6.37,0,0,0,.33,2.6q.49,1.1,1.21,1.1,2,0,4.28-7.35c.66-2.23,1-3.55,1.13-3.92l-.07,0c-1.46,3.73-2.82,5.6-4,5.6-1.87,0-3.4-1.46-3.4-4.5a18,18,0,0,1,2-8.64c1.28-2.45,2.74-3.66,4.35-3.66a4.63,4.63,0,0,1,3.22,1.79,6.1,6.1,0,0,1,1.43,2.42v.07a1.94,1.94,0,0,1,1.21.62c-.11.44-.33,1.21-.59,2.34s-.55,2.2-.8,3.15-.48,1.76-.62,2.31C521.25,31.72,518.76,35.53,515.83,35.53ZM517,25.43c.48,0,1.13-.73,2-2.23a43.06,43.06,0,0,0,2.52-5.31l.11-.4a.58.58,0,0,1-.4-.55s0-.15.07-.29a4.35,4.35,0,0,0,.29-1.46c0-.69-.22-1.06-.66-1.06-.77,0-1.9,1.24-2.82,3.07a17.23,17.23,0,0,0-1.65,7.14Q516.42,25.43,517,25.43Z"/><path class="cls-1" d="M544,20a1.2,1.2,0,0,1-.15.62c-2.16,5.45-4.35,7.94-5.85,7.94A4.51,4.51,0,0,1,535.08,27a4.07,4.07,0,0,1-1.65-2.78q0-3.62,2.31-11.75h-1.35c-.58,0-1-.88-1-1.76a2.91,2.91,0,0,1,.07-.51l2.85,0a47.94,47.94,0,0,1,1.83-5.12,3,3,0,0,1,.62,0c1.61,0,2.93.55,2.93,1.1a16.76,16.76,0,0,1-.62,1.72c-.26.66-.55,1.46-.88,2.38.77,0,1.61,0,2.49-.07.55,0,1,.88,1,1.76a2.91,2.91,0,0,1-.07.51h-4.06c-1.79,5.71-2.67,9.88-2.67,12.48,0,.8,0,1.35.55,1.35.88,0,2.56-1.21,3.88-3.44a19.8,19.8,0,0,0,1.5-3.07C543.2,18.63,543.89,19.39,544,20Z"/><path class="cls-1" d="M557.39,19.21c.29,0,.62.4.62.88a1.61,1.61,0,0,1-.07.48q-1.76,4.67-5.6,4.5c-1.28,2.31-2.71,3.44-4.32,3.44a6.85,6.85,0,0,1-3.7-1.46,4.79,4.79,0,0,1-1.76-4,13.78,13.78,0,0,1,1.28-6.48c.84-1.65,1.79-2.56,2.93-2.78.62-1.57,1.54-2.34,2.75-2.34a3.88,3.88,0,0,1,1.79.62,11.62,11.62,0,0,0,1.24.7c1.43.48,2.16,1.72,2.16,3.77a18.47,18.47,0,0,1-1.65,7.06c1.5,0,2.74-1.24,3.81-3.77C557.06,19.43,557.21,19.21,557.39,19.21Zm-10.28,7.35c.7,0,1.43-.81,2.16-2.45a7,7,0,0,1-2.85-5,19.54,19.54,0,0,0-.59,4.54C545.83,25.61,546.27,26.56,547.11,26.56ZM554,4.72a18.73,18.73,0,0,0,2,4.5,3.14,3.14,0,0,1-2.27,1.1.67.67,0,0,1-.51-.18,9.76,9.76,0,0,1-1.39-3.84,26.17,26.17,0,0,1-4,3.44,1.8,1.8,0,0,1-.73.18c-.48,0-.7-.11-.7-.37s.07-.22.22-.37a33.88,33.88,0,0,0,4.9-5.42C552.6,3.66,553.77,4.13,554,4.72Zm-4.1,18a19,19,0,0,0,1.46-6.48q0-2.74-1.1-2.74c-1,0-2.2,1.9-2.2,4.72A5.58,5.58,0,0,0,549.86,22.72Z"/><path class="cls-1" d="M563.06,26.67a3.28,3.28,0,0,1-2.45,1.61c-1,0-2.52-1-3.51-2.34a4.4,4.4,0,0,1-.58-2.49,21.47,21.47,0,0,1,.55-4.06c.37-1.72.73-3.26,1.13-4.54a23.79,23.79,0,0,1,.92-2.78,8.48,8.48,0,0,1,2.3.4c.84.29,1.28.62,1.28,1s-.8,1.87-1.76,5.42a24.17,24.17,0,0,0-1,5.82c-.15,2.74,1.83,1,3.4-1.5a31.39,31.39,0,0,0,1.76-3.51c.11-.29.29-.44.48-.44s.59.4.59.81a2.53,2.53,0,0,1-.22.88A30.84,30.84,0,0,1,563.06,26.67ZM564.45,8a2.9,2.9,0,0,1-2.08,1.06,1.57,1.57,0,0,1-1.61-1.79A3.79,3.79,0,0,1,561.6,5a2.41,2.41,0,0,1,2-1.1,1.82,1.82,0,0,1,1.87,1.94A3.16,3.16,0,0,1,564.45,8Z"/><path class="cls-1" d="M568.48,27.3a2.51,2.51,0,0,1-1.94,1.17,1.78,1.78,0,0,1-1.83-1.94,4.12,4.12,0,0,1,.84-2.42,2.41,2.41,0,0,1,2-1.17,1.85,1.85,0,0,1,1.79,1.83A4.27,4.27,0,0,1,568.48,27.3Z"/></g></g></svg>